<svg width="158" height="131" viewBox="0 0 158 131" fill="none" xmlns="http://www.w3.org/2000/svg">
<path d="M48.612 0.976074C52.6285 0.976074 56.6878 1.37091 60.7898 2.16059C64.9773 2.85155 68.3102 3.78929 70.7885 4.9738C71.5576 5.26993 72.0276 5.66476 72.1985 6.15831C72.4549 6.55315 72.6258 7.29347 72.7113 8.37927L74.3777 28.9601C74.3777 29.2563 74.1641 29.4537 73.7368 29.5524C73.3095 29.6511 73.0104 29.503 72.8395 29.1082C70.4466 21.014 67.0283 14.8447 62.5845 10.6002C58.1406 6.25702 52.7994 4.08542 46.5609 4.08542C40.7498 4.08542 35.5368 5.91154 30.922 9.56378C26.3927 13.1173 22.8034 18.2502 20.1542 24.9624C17.5904 31.6746 16.3086 39.522 16.3086 48.5045C16.3086 57.5858 17.6332 65.5812 20.2824 72.4909C23.0171 79.3018 26.7345 84.5828 31.4348 88.3337C36.2204 91.986 41.6898 93.8121 47.8428 93.8121C53.7395 93.8121 58.6961 91.986 62.7126 88.3337C66.7292 84.5828 70.5321 78.4628 74.1214 69.9738C74.2068 69.6777 74.4632 69.579 74.8905 69.6777C75.3178 69.7764 75.5314 69.9738 75.5314 70.2699L73.6086 88.6298C73.4377 89.8143 73.2668 90.604 73.0959 90.9989C72.925 91.295 72.4549 91.6405 71.6858 92.0353C63.8236 95.2927 55.8759 96.9214 47.8428 96.9214C38.6987 96.9214 30.4947 94.9472 23.2307 90.9989C16.0522 86.9518 10.4119 81.3254 6.30989 74.1196C2.20787 66.9138 0.15686 58.721 0.15686 49.541C0.15686 40.1636 2.2506 31.8227 6.43808 24.5182C10.711 17.115 16.5222 11.3405 23.8717 7.19475C31.3066 3.04897 39.5533 0.976074 48.612 0.976074Z" fill="#C3937C"/>
<path d="M101.138 61.9136C101.138 60.0396 100.705 58.5821 99.8401 57.5411C98.9748 56.5 97.7851 55.9795 96.2709 55.9795C94.7927 55.9795 93.639 56.5 92.8098 57.5411C92.0166 58.5821 91.62 60.1854 91.62 62.3508C91.62 66.4318 92.9901 70.6586 95.7301 75.0311C98.5061 79.362 102.093 83.443 106.492 87.2741C108.727 89.1897 110.89 90.7721 112.981 92.0214C115.109 93.2707 116.929 94.0619 118.443 94.3951C118.588 94.4367 118.642 94.5825 118.606 94.8323C118.606 95.0405 118.552 95.1446 118.443 95.1446H113.36C111.341 95.1446 108.276 93.1458 104.166 89.1481C101.282 86.5246 98.6143 83.6095 96.1627 80.403C93.7111 77.1965 91.8364 74.0941 90.5385 71.0958C89.529 68.4307 89.0242 66.1612 89.0242 64.2872C89.0242 62.6215 89.3848 61.0599 90.1058 59.6024C90.8629 58.1449 91.8904 56.9789 93.1883 56.1044C94.4862 55.2299 95.9644 54.7926 97.6229 54.7926C99.2452 54.7926 100.669 55.2507 101.895 56.1669C103.121 57.083 103.734 58.6862 103.734 60.9766C103.734 62.6007 103.373 64.079 102.652 65.4116C101.967 66.7025 101.084 67.8477 100.002 68.8471C98.9568 69.8466 97.5688 71.0126 95.8382 72.3451C93.9995 73.761 92.5214 74.9895 91.4037 76.0305C90.3221 77.0716 89.4028 78.3209 88.6457 79.7784C87.8886 81.1943 87.51 82.8183 87.51 84.6506C87.51 86.4413 87.8886 88.0862 88.6457 89.5853C89.4388 91.0428 90.5024 92.2088 91.8364 93.0833C93.1703 93.9162 94.6665 94.3326 96.3249 94.3326C98.5963 94.3326 100.669 93.5414 102.544 91.959C104.455 90.3765 105.951 88.336 107.033 85.8375C108.15 83.2972 108.709 80.6737 108.709 77.9669C108.709 76.676 108.457 75.7182 107.952 75.0936C107.483 74.4273 106.492 74.0941 104.978 74.0941C104.869 74.0941 104.797 73.9692 104.761 73.7193C104.761 73.4695 104.833 73.3446 104.978 73.3446L115.902 73.2821C116.046 73.2821 116.118 73.407 116.118 73.6569C116.118 73.9067 116.046 74.0317 115.902 74.0317C114.64 74.0317 113.684 74.1566 113.035 74.4065C112.423 74.6563 111.99 75.0103 111.738 75.4684C111.485 75.9264 111.251 76.5927 111.035 77.4672C109.809 82.4227 107.898 86.7328 105.302 90.3973C102.706 94.0619 99.0469 95.8942 94.324 95.8942C92.1608 95.8942 90.3402 95.457 88.862 94.5825C87.4199 93.708 86.3383 92.5628 85.6172 91.1469C84.9322 89.6894 84.5897 88.1278 84.5897 86.4621C84.5897 84.5882 84.9863 82.9016 85.7795 81.4025C86.5726 79.8617 87.528 78.5291 88.6457 77.4048C89.7994 76.2804 91.3316 74.927 93.2424 73.3446C95.009 71.9287 96.4151 70.7211 97.4606 69.7216C98.5062 68.6806 99.3714 67.5146 100.056 66.2236C100.777 64.891 101.138 63.4544 101.138 61.9136Z" fill="#C3937C"/>
<path d="M156.772 2.60478C157.029 2.60478 157.157 2.90091 157.157 3.49316C157.157 4.08541 157.029 4.38154 156.772 4.38154C154.55 4.38154 152.884 4.67767 151.773 5.26992C150.747 5.86218 150.064 6.89863 149.722 8.37927C149.38 9.76119 149.209 11.9328 149.209 14.8941V95.7369C149.209 106.792 146.816 115.429 142.031 121.648C137.33 127.867 130.75 130.976 122.29 130.976C119.042 130.976 116.393 130.186 114.342 128.607C112.291 127.028 111.266 124.856 111.266 122.092C111.266 120.118 111.821 118.341 112.932 116.762C114.043 115.281 115.709 114.541 117.931 114.541C120.068 114.541 121.691 115.281 122.802 116.762C123.999 118.243 125.067 120.315 126.007 122.981C126.52 124.56 127.033 125.744 127.545 126.534C128.058 127.423 128.699 127.867 129.468 127.867C131.263 127.867 132.587 126.189 133.442 122.833C134.297 119.476 134.724 113.899 134.724 106.101V14.5979C134.724 11.6367 134.425 9.46507 133.827 8.08314C133.314 6.70121 132.331 5.76347 130.878 5.26992C129.426 4.67767 127.118 4.38154 123.956 4.38154C123.785 4.38154 123.7 4.08541 123.7 3.49316C123.7 2.90091 123.785 2.60478 123.956 2.60478L131.904 2.75284C136.006 2.95026 139.296 3.04897 141.774 3.04897C144.167 3.04897 147.158 2.95026 150.747 2.75284L156.772 2.60478Z" fill="#C3937C"/>
</svg>
